<svg width="120" height="120" viewBox="0 0 120 120" fill="none" xmlns="http://www.w3.org/2000/svg"><rect width="120" height="120" rx="60" fill="#007AFF" fill-opacity=".15"/><path fill-rule="evenodd" clip-rule="evenodd" d="M78 48c0 9.941-8.058 18-18 18-9.94 0-18-8.059-18-18s8.06-18 18-18c9.942 0 18 8.059 18 18m-6 0c0 6.627-5.372 12-12 12-6.627 0-12-5.373-12-12s5.373-12 12-12c6.628 0 12 5.373 12 12" fill="#0F15A3"/><path d="M60 75c-19.422 0-35.971 11.485-42.275 27.576a60 60 0 0 0 4.846 4.32C27.265 92.123 41.99 81 60 81s32.736 11.123 37.43 25.896a60 60 0 0 0 4.846-4.32C95.973 86.486 79.424 75 60.001 75" fill="#0F15A3"/></svg>
