<svg width="90" height="90" viewBox="0 0 90 90" fill="none" xmlns="http://www.w3.org/2000/svg"><g filter="url(#a)"><path d="M45 41c11.276 0 20.5-9.225 20.5-20.5S56.276 0 45 0 24.5 9.225 24.5 20.5 33.724 41 45 41m0 10.25c-13.58 0-41 6.92-41 20.5V82h82V71.75c0-13.58-27.42-20.5-41-20.5" fill="#fff"/><path d="M63 20.5c0 9.894-8.105 18-18 18s-18-8.106-18-18 8.105-18 18-18 18 8.106 18 18ZM6.5 71.75c0-2.47 1.228-4.83 3.688-7.092 2.477-2.277 6.024-4.277 10.15-5.93C28.59 55.42 38.525 53.75 45 53.75s16.408 1.67 24.663 4.978c4.125 1.653 7.672 3.653 10.148 5.93 2.461 2.262 3.689 4.621 3.689 7.092v7.75h-77z" stroke="#0F15A3" stroke-width="5"/></g><defs><filter id="a" x="0" y="0" width="90" height="90" filterUnits="userSpaceOnUse" color-interpolation-filters="sRGB"><feFlood flood-opacity="0" result="BackgroundImageFix"/><feColorMatrix in="SourceAlpha" values="0 0 0 0 0 0 0 0 0 0 0 0 0 0 0 0 0 0 127 0" result="hardAlpha"/><feOffset dy="4"/><feGaussianBlur stdDeviation="2"/><feComposite in2="hardAlpha" operator="out"/><feColorMatrix values="0 0 0 0 0 0 0 0 0 0 0 0 0 0 0 0 0 0 0.25 0"/><feBlend in2="BackgroundImageFix" result="effect1_dropShadow_104_631"/><feBlend in="SourceGraphic" in2="effect1_dropShadow_104_631" result="shape"/></filter></defs></svg>