<svg width="105" height="109" viewBox="0 0 105 109" fill="none" xmlns="http://www.w3.org/2000/svg"><path d="M16.8 4.36v8.72H8.4v91.56h88.2V30.52H63V13.08h-8.4V4.36zM21 8.72h29.4v8.72h8.4v82.84H39.9V85.02h-8.4v15.26H12.6V17.44H21zm0 13.08v4.36h4.2V21.8zm8.4 0v4.36h4.2V21.8zm8.4 0v4.36H42V21.8zm8.4 0v4.36h4.2V21.8zM21 32.7v8.72h4.2V32.7zm8.4 0v8.72h4.2V32.7zm8.4 0v8.72H42V32.7zm8.4 0v8.72h4.2V32.7zM63 34.88h29.4v65.4H63zm4.2 4.36v4.36h4.2v-4.36zm8.4 0v4.36h4.2v-4.36zm8.4 0v4.36h4.2v-4.36zm-63 6.54v8.72h4.2v-8.72zm8.4 0v8.72h4.2v-8.72zm8.4 0v8.72H42v-8.72zm8.4 0v8.72h4.2v-8.72zm21 2.18v4.36h4.2v-4.36zm8.4 0v4.36h4.2v-4.36zm8.4 0v4.36h4.2v-4.36zm-16.8 8.72v4.36h4.2v-4.36zm8.4 0v4.36h4.2v-4.36zm8.4 0v4.36h4.2v-4.36zm-63 2.18v8.72h4.2v-8.72zm8.4 0v8.72h4.2v-8.72zm8.4 0v8.72H42v-8.72zm8.4 0v8.72h4.2v-8.72zm21 6.54v4.36h4.2V65.4zm8.4 0v4.36h4.2V65.4zm8.4 0v4.36h4.2V65.4zm-63 6.54v8.72h4.2v-8.72zm8.4 0v8.72h4.2v-8.72zm8.4 0v8.72H42v-8.72zm8.4 0v8.72h4.2v-8.72zm21 2.18v4.36h4.2v-4.36zm8.4 0v4.36h4.2v-4.36zm8.4 0v4.36h4.2v-4.36zm-16.8 8.72v4.36h4.2v-4.36zm8.4 0v4.36h4.2v-4.36zm8.4 0v4.36h4.2v-4.36zm-63 2.18v10.9h4.2v-10.9zm25.2 0v10.9h4.2v-10.9zm21 6.54v4.36h4.2v-4.36zm8.4 0v4.36h4.2v-4.36zm8.4 0v4.36h4.2v-4.36z" fill="#0F15A3"/></svg>